# xmcd
# 
# Track frame offsets:
#     150
#     13412
#     25909
#     38561
#     52214
#     65796
#     77408
#     89587
#     103120
#     118240
#     132982
#     146754
#     159718
#     171843
#     184229
#     196619
#     211188
#     223217
#     252587
# 
# Disc length: 3557
# 
# Revision: 4
# Processed by: cddbd v1.5.2PL0 Copyright (c) Steve Scherf et al.
# Submitted via: fre:ac v1.0.31
# 
DISCID=250de313
DTITLE=Muddy Waters - Les Legendes Du Blues
DYEAR=2003
DGENRE=Blues
TTITLE0=Mannish Boy
TTITLE1=I'm Your Hoochie Coochie Man
TTITLE2=I Just Want To Make Love To You
TTITLE3=I'm Ready
TTITLE4=Young Fashioned Ways
TTITLE5=Gypsy Woman
TTITLE6=I Can't Be Satisfied
TTITLE7=Rollin' And Tumblin'
TTITLE8=Honey Bee
TTITLE9=Baby Please Don't Go
TTITLE10=I Want You To Love Me
TTITLE11=Got My Mojo Working
TTITLE12=Trouble No More
TTITLE13=My Love Strikes Like Lightnin'
TTITLE14=You Shook Me
TTITLE15=Good Morning Little Schoolgirl
TTITLE16=Garbage Man
TTITLE17=She's Alright
TTITLE18=Let's Spend The Night Together
EXTD=\n\n[MPC]
EXTT0=
EXTT1=
EXTT2=
EXTT3=
EXTT4=
EXTT5=
EXTT6=
EXTT7=
EXTT8=
EXTT9=
EXTT10=
EXTT11=
EXTT12=
EXTT13=
EXTT14=
EXTT15=
EXTT16=
EXTT17=
EXTT18=
PLAYORDER=
